<!--?xml version="1.0" encoding="utf-8"?-->
<!-- Generator: Adobe Illustrator 22.1.0, SVG Export Plug-In . SVG Version: 6.00 Build 0)  -->
<svg version="1.1" id="_x37_" xmlns="http://www.w3.org/2000/svg" xmlns:xlink="http://www.w3.org/1999/xlink" x="0px" y="0px" viewBox="0 0 720 720" style="enable-background:new 0 0 720 720;" xml:space="preserve">
<style type="text/css">
	.st0{fill:#DAF2FF;}
	.st1{fill:#6D7C90;}
</style>
<g>
	<path class="st0" d="M720,359.993c0,108.778-48.247,206.289-124.512,272.303C532.366,686.943,450.045,720,360.007,720
		c-90.052,0-172.373-33.057-235.495-87.704C48.247,566.282,0,468.771,0,359.993C0,161.177,161.177,0,360.007,0
		C558.823,0,720,161.177,720,359.993z" style="opacity: 1;"></path>
	<g>
		<circle class="st1" cx="360.003" cy="269.956" r="142.309" style="opacity: 1;"></circle>
		<path class="st1" d="M595.488,632.296C532.366,686.943,450.045,720,360.007,720c-90.052,0-172.373-33.057-235.495-87.704
			c32.628-154.091,172.416-191.1,235.495-191.1C423.072,441.197,562.861,478.206,595.488,632.296z" style="opacity: 1;"></path>
	</g>
</g>
</svg>
